<svg width="200" height="100" viewBox="0 0 200 100" fill="none" xmlns="http://www.w3.org/2000/svg">
<ellipse cx="97.4587" cy="77.4512" rx="64.9167" ry="3.98611" fill="#F7F7F7"/>
<path d="M150.074 58.283L154.162 60.3407L151.565 65.4989C151.336 65.9535 150.992 66.2756 150.532 66.4653C150.09 66.6641 149.606 66.6308 149.079 66.3656L146.627 65.131L141.627 75.0621L134.27 71.3583L139.27 61.4272L123.302 53.3884C122.775 53.1232 122.384 52.703 122.127 52.1278C121.888 51.5617 121.849 50.9844 122.008 50.3959L123.42 45.4213L155.307 27.8086L163.372 31.8692L150.074 58.283ZM148.389 43.314C148.737 42.6223 149.128 41.8903 149.563 41.118C150.025 40.3352 150.516 39.5417 151.034 38.7376L132.499 49.4349L142.717 54.5791L148.389 43.314Z" fill="#D4D4D4"/>
<path d="M118.836 49.7349C118.836 53.9611 118.419 57.6231 117.585 60.7208C116.751 63.8186 115.592 66.3853 114.107 68.4209C112.643 70.4566 110.894 71.9722 108.86 72.9679C106.847 73.9636 104.66 74.4615 102.301 74.4615C99.942 74.4615 97.7557 73.9636 95.7423 72.9679C93.7492 71.9722 92.0205 70.4566 90.5562 68.4209C89.0919 66.3853 87.9428 63.8186 87.1089 60.7208C86.2954 57.6231 85.8887 53.9611 85.8887 49.7349C85.8887 45.5087 86.2954 41.8467 87.1089 38.749C87.9428 35.6513 89.0919 33.0846 90.5562 31.0489C92.0205 29.0132 93.7492 27.5086 95.7423 26.5351C97.7557 25.5394 99.942 25.0415 102.301 25.0415C104.66 25.0415 106.847 25.5394 108.86 26.5351C110.894 27.5086 112.643 29.0132 114.107 31.0489C115.592 33.0846 116.751 35.6513 117.585 38.749C118.419 41.8467 118.836 45.5087 118.836 49.7349ZM109.074 49.7349C109.074 46.3938 108.88 43.6611 108.494 41.537C108.108 39.3907 107.589 37.709 106.938 36.4921C106.308 35.2751 105.586 34.4454 104.772 34.0028C103.959 33.5382 103.135 33.3058 102.301 33.3058C101.467 33.3058 100.644 33.5382 99.8302 34.0028C99.037 34.4454 98.3252 35.2751 97.6947 36.4921C97.0846 37.709 96.5863 39.3907 96.1999 41.537C95.8338 43.6611 95.6508 46.3938 95.6508 49.7349C95.6508 53.0982 95.8338 55.8419 96.1999 57.966C96.5863 60.0902 97.0846 61.7718 97.6947 63.0109C98.3252 64.2279 99.037 65.0687 99.8302 65.5334C100.644 65.9759 101.467 66.1972 102.301 66.1972C103.135 66.1972 103.959 65.9759 104.772 65.5334C105.586 65.0687 106.308 64.2279 106.938 63.0109C107.589 61.7718 108.108 60.0902 108.494 57.966C108.88 55.8419 109.074 53.0982 109.074 49.7349Z" fill="#D4D4D4"/>
<path d="M76.0504 55.1448H80.6264V60.9199C80.6264 61.4288 80.4636 61.8714 80.1382 62.2475C79.8332 62.6237 79.3857 62.8118 78.796 62.8118H76.0504V73.9304H67.8136V62.8118H49.9367C49.3469 62.8118 48.808 62.6126 48.3199 62.2143C47.8521 61.8161 47.5572 61.3182 47.4352 60.7208L46.459 55.6427L67.0204 25.5725H76.0504V55.1448ZM67.8136 42.5326C67.8136 41.7582 67.8339 40.9284 67.8746 40.0434C67.9356 39.1362 68.017 38.2069 68.1187 37.2554L56.3736 55.1448H67.8136V42.5326Z" fill="#D4D4D4"/>
<path d="M123.198 76.8986C129.245 76.8986 134.929 77.739 134.929 71.6919C134.929 65.6447 129.245 55 123.198 55C117.151 55 111.04 66.2135 111.04 72.2607C111.04 78.3078 117.151 76.8986 123.198 76.8986Z" fill="#FFCE31"/>
<path d="M121.717 58.7185H124.628C125.025 58.8652 125.203 59.0904 125.188 59.4457C125.172 59.8548 125.149 60.2659 125.128 60.6749C125.056 62.1479 124.984 63.623 124.911 65.096C124.878 65.7736 124.851 66.4512 124.806 67.1288C124.781 67.5213 124.498 67.7692 124.103 67.7713C123.496 67.7734 122.889 67.7734 122.281 67.7713C121.87 67.7713 121.595 67.4986 121.575 67.0854C121.527 66.1103 121.478 65.1373 121.43 64.1622C121.352 62.59 121.269 61.0179 121.191 59.4457C121.174 59.1317 121.345 58.8755 121.635 58.7598C121.664 58.7474 121.703 58.7578 121.719 58.7185H121.717Z" fill="white"/>
<path d="M122.847 73.2047C122.816 73.151 122.756 73.1634 122.711 73.1531C121.622 72.9176 120.88 71.9445 120.928 70.8145C120.971 69.7526 121.806 68.8477 122.876 68.701C124.091 68.5358 125.231 69.3704 125.417 70.5583C125.611 71.7978 124.816 72.9361 123.597 73.1696C123.545 73.1799 123.483 73.1531 123.442 73.2047H122.849H122.847Z" fill="white"/>
</svg>
