<svg width="10" height="10" viewBox="0 0 10 10" fill="none" xmlns="http://www.w3.org/2000/svg">
<path d="M4.58333 0C2.05141 0 0 2.05141 0 4.58333C0 7.11525 2.05141 9.16667 4.58333 9.16667C7.11525 9.16667 9.16667 7.11525 9.16667 4.58333C9.16667 2.05141 7.11525 0 4.58333 0ZM6.83065 5.78646C6.91751 5.87332 6.91751 6.01378 6.83065 6.10064L6.09879 6.83065C6.01193 6.91751 5.87147 6.91751 5.78461 6.83065L4.58333 5.61828L3.38021 6.83065C3.29335 6.91751 3.15289 6.91751 3.06603 6.83065L2.33602 6.09879C2.24916 6.01193 2.24916 5.87147 2.33602 5.78461L3.54839 4.58333L2.33602 3.38021C2.24916 3.29335 2.24916 3.15289 2.33602 3.06603L3.06788 2.33417C3.15474 2.24731 3.29519 2.24731 3.38206 2.33417L4.58333 3.54839L5.78646 2.33602C5.87332 2.24916 6.01378 2.24916 6.10064 2.33602L6.83249 3.06788C6.91935 3.15474 6.91935 3.29519 6.83249 3.38206L5.61828 4.58333L6.83065 5.78646Z" fill="#FF3B30"/>
</svg>
