<svg width="10" height="10" viewBox="0 0 10 10" fill="none" xmlns="http://www.w3.org/2000/svg">
<path d="M9.16667 4.58333C9.16667 7.11465 7.11465 9.16667 4.58333 9.16667C2.05202 9.16667 0 7.11465 0 4.58333C0 2.05202 2.05202 0 4.58333 0C7.11465 0 9.16667 2.05202 9.16667 4.58333ZM4.05318 7.01017L7.45372 3.60963C7.56919 3.49416 7.56919 3.30693 7.45372 3.19146L7.03555 2.77329C6.92008 2.6578 6.73284 2.6578 6.61735 2.77329L3.84409 5.54654L2.54931 4.25176C2.43384 4.13629 2.24661 4.13629 2.13112 4.25176L1.71295 4.66994C1.59748 4.78541 1.59748 4.97264 1.71295 5.08811L3.63499 7.01015C3.75048 7.12564 3.93769 7.12564 4.05318 7.01017Z" fill="#22C789"/>
</svg>
