<svg xmlns="http://www.w3.org/2000/svg" width="10" height="10" viewBox="0 0 10 10" fill="none">
  <path d="M9.88745 8.19466C10.2079 8.75011 9.80566 9.44443 9.16563 9.44443H0.834276C0.193008 9.44443 -0.207373 8.74903 0.112453 8.19466L4.27818 0.971948C4.59879 0.416237 5.40179 0.417243 5.72183 0.971948L9.88745 8.19466V8.19466ZM5 6.70138C4.55895 6.70138 4.20139 7.05893 4.20139 7.49999C4.20139 7.94105 4.55895 8.2986 5 8.2986C5.44106 8.2986 5.79862 7.94105 5.79862 7.49999C5.79862 7.05893 5.44106 6.70138 5 6.70138ZM4.24179 3.83079L4.37058 6.1919C4.3766 6.30238 4.46796 6.38888 4.5786 6.38888H5.42141C5.53205 6.38888 5.62341 6.30238 5.62943 6.1919L5.75822 3.83079C5.76473 3.71145 5.66971 3.6111 5.5502 3.6111H4.4498C4.33028 3.6111 4.23528 3.71145 4.24179 3.83079V3.83079Z" fill="#FCCD48"/>
</svg>